<?xml version="1.0" encoding="utf-8"?>
<!-- Generator: Adobe Illustrator 18.0.0, SVG Export Plug-In . SVG Version: 6.00 Build 0)  -->
<!DOCTYPE svg PUBLIC "-//W3C//DTD SVG 1.1//EN" "http://www.w3.org/Graphics/SVG/1.1/DTD/svg11.dtd">
<svg version="1.1" id="Icons" xmlns="http://www.w3.org/2000/svg" xmlns:xlink="http://www.w3.org/1999/xlink" x="0px" y="0px"
	 viewBox="0 0 32 32" enable-background="new 0 0 32 32" xml:space="preserve">
<g>
	<path fill="none" stroke="#333333" stroke-width="2" stroke-linecap="round" stroke-linejoin="round" stroke-miterlimit="10" d="
		M11.395,24.866l-4.258,4.26c-1.171,1.171-3.087,1.171-4.259,0l0,0c-1.171-1.171-1.171-3.088,0-4.26l4.259-4.26L11.395,24.866z"/>
	
		<rect x="14.404" y="2.768" transform="matrix(0.707 0.7072 -0.7072 0.707 14.5458 -10.1452)" fill="none" stroke="#333333" stroke-width="2" stroke-linecap="round" stroke-linejoin="round" stroke-miterlimit="10" width="10.226" height="19.429"/>
	
		<line fill="none" stroke="#333333" stroke-width="2" stroke-linecap="round" stroke-linejoin="round" stroke-miterlimit="10" x1="10.118" y1="17.544" x2="8.672" y2="21.857"/>
	
		<line fill="none" stroke="#333333" stroke-width="2" stroke-linecap="round" stroke-linejoin="round" stroke-miterlimit="10" x1="10.145" y1="23.33" x2="14.456" y2="21.883"/>
	
		<rect x="18.344" y="6.497" transform="matrix(0.707 0.7072 -0.7072 0.707 14.3959 -10.5068)" fill="none" stroke="#333333" stroke-linecap="round" stroke-linejoin="round" stroke-miterlimit="10" width="3.068" height="11.248"/>
	
		<line fill="none" stroke="#333333" stroke-linecap="round" stroke-linejoin="round" stroke-miterlimit="10" x1="22.77" y1="1.996" x2="22.77" y2="7.058"/>
	
		<line fill="none" stroke="#333333" stroke-linecap="round" stroke-linejoin="round" stroke-miterlimit="10" x1="30" y1="9.228" x2="24.939" y2="9.228"/>
	
		<line fill="none" stroke="#333333" stroke-linecap="round" stroke-linejoin="round" stroke-miterlimit="10" x1="14.817" y1="15.013" x2="9.034" y2="15.736"/>
	
		<line fill="none" stroke="#333333" stroke-linecap="round" stroke-linejoin="round" stroke-miterlimit="10" x1="16.986" y1="17.183" x2="16.263" y2="22.968"/>
</g>
</svg>
