<?xml version="1.0" encoding="utf-8"?>
<!-- Generator: Adobe Illustrator 18.0.0, SVG Export Plug-In . SVG Version: 6.00 Build 0)  -->
<!DOCTYPE svg PUBLIC "-//W3C//DTD SVG 1.1//EN" "http://www.w3.org/Graphics/SVG/1.1/DTD/svg11.dtd">
<svg version="1.1" id="Icons" xmlns="http://www.w3.org/2000/svg" xmlns:xlink="http://www.w3.org/1999/xlink" x="0px" y="0px"
	 viewBox="0 0 32 32" enable-background="new 0 0 32 32" xml:space="preserve">
<g>
	
		<polygon fill="none" stroke="#333333" stroke-width="2" stroke-linecap="round" stroke-linejoin="round" stroke-miterlimit="10" points="
		18.5,14 16,14 13.5,14 11,11.5 11,9 11,6.5 11,4 13.5,4 16,4 18.5,4 21,4 21,6.5 21,9 21,11.5 	"/>
	<path fill="none" stroke="#333333" stroke-width="2" stroke-linecap="round" stroke-linejoin="round" stroke-miterlimit="10" d="
		M18.221,19h-4.656c0,0.49,0.12,1.133-0.066,1.592c-0.207,0.51-0.573,0.732-0.99,1.071c-0.457,0.372-0.897,0.767-1.28,1.215
		c-0.799,0.935-1.272,2.138-1.225,3.374c0.056,1.478,0.837,2.919,2.075,3.8s2.911,1.177,4.391,0.764
		c2.711-0.757,4.226-3.452,4.474-6.005c0.033-0.336,0.14-0.838-0.066-1.135c-0.194,0.096-0.373,0.42-0.526,0.588
		c-0.202,0.221-0.415,0.432-0.64,0.631c-0.631,0.561-1.353,1.025-2.072,1.47c-0.532,0.329-1.191,0.742-1.839,0.722
		c-0.598-0.018-1.183-0.361-1.475-0.885c-0.484-0.872-0.026-1.864,0.572-2.545c0.656-0.748,1.55-1.227,2.321-1.84
		c0.448-0.356,0.864-0.836,0.981-1.411C18.289,19.962,18.221,19.454,18.221,19z"/>
	
		<line fill="none" stroke="#333333" stroke-linecap="round" stroke-linejoin="round" stroke-miterlimit="10" x1="14.5" y1="14" x2="14.5" y2="19"/>
	
		<line fill="none" stroke="#333333" stroke-linecap="round" stroke-linejoin="round" stroke-miterlimit="10" x1="17.5" y1="14" x2="17.5" y2="19"/>
	
		<line fill="none" stroke="#333333" stroke-linecap="round" stroke-linejoin="round" stroke-miterlimit="10" x1="13.5" y1="0.5" x2="13.5" y2="4"/>
	
		<line fill="none" stroke="#333333" stroke-linecap="round" stroke-linejoin="round" stroke-miterlimit="10" x1="18.5" y1="0.5" x2="18.5" y2="4"/>
	
		<line fill="none" stroke="#333333" stroke-linecap="round" stroke-linejoin="round" stroke-miterlimit="10" x1="15.896" y1="4.104" x2="11.042" y2="8.958"/>
	
		<line fill="none" stroke="#333333" stroke-linecap="round" stroke-linejoin="round" stroke-miterlimit="10" x1="19.979" y1="4.021" x2="11.76" y2="12.24"/>
	
		<line fill="none" stroke="#333333" stroke-linecap="round" stroke-linejoin="round" stroke-miterlimit="10" x1="20.979" y1="7.021" x2="14.021" y2="13.979"/>
</g>
</svg>
