<?xml version="1.0" encoding="utf-8"?>
<!-- Generator: Adobe Illustrator 18.0.0, SVG Export Plug-In . SVG Version: 6.00 Build 0)  -->
<!DOCTYPE svg PUBLIC "-//W3C//DTD SVG 1.1//EN" "http://www.w3.org/Graphics/SVG/1.1/DTD/svg11.dtd">
<svg version="1.1" id="Icons" xmlns="http://www.w3.org/2000/svg" xmlns:xlink="http://www.w3.org/1999/xlink" x="0px" y="0px"
	 viewBox="0 0 32 32" enable-background="new 0 0 32 32" xml:space="preserve">
<g>
	<path fill="none" stroke="#333333" stroke-linecap="round" stroke-linejoin="round" stroke-miterlimit="10" d="M14.395,12.351
		l3.614-2.391c0.535-0.354,1.248-0.287,1.703,0.158l0,0c0.455,0.446,0.522,1.145,0.162,1.669l-2.43,3.53"/>
	<path fill="none" stroke="#333333" stroke-width="2" stroke-linecap="round" stroke-linejoin="round" stroke-miterlimit="10" d="
		M12.029,5.341L25.294,2.07c1.626-0.401,3.044,0.989,2.634,2.583l-3.338,13.006c-0.435,1.694-2.581,2.34-3.801,1.144l-9.928-9.734
		C9.642,7.872,10.3,5.767,12.029,5.341z"/>
	
		<line fill="none" stroke="#333333" stroke-width="2" stroke-linecap="round" stroke-linejoin="round" stroke-miterlimit="10" x1="15.575" y1="14.184" x2="13.297" y2="16.418"/>
	
		<line fill="none" stroke="#333333" stroke-width="2" stroke-linecap="round" stroke-linejoin="round" stroke-miterlimit="10" x1="13.297" y1="16.418" x2="15.575" y2="18.651"/>
	
		<line fill="none" stroke="#333333" stroke-width="2" stroke-linecap="round" stroke-linejoin="round" stroke-miterlimit="10" x1="15.575" y1="18.651" x2="11.019" y2="23.118"/>
	<path fill="none" stroke="#333333" stroke-width="2" stroke-linecap="round" stroke-linejoin="round" stroke-miterlimit="10" d="
		M4.944,29.075L4.944,29.075c-1.258-1.234-1.258-3.234,0-4.468l3.797-3.722l4.556,4.467l-3.797,3.723
		C8.241,30.308,6.202,30.308,4.944,29.075z"/>
</g>
</svg>
