<?xml version="1.0" encoding="utf-8"?>
<!-- Generator: Adobe Illustrator 18.0.0, SVG Export Plug-In . SVG Version: 6.00 Build 0)  -->
<!DOCTYPE svg PUBLIC "-//W3C//DTD SVG 1.1//EN" "http://www.w3.org/Graphics/SVG/1.1/DTD/svg11.dtd">
<svg version="1.1" id="Icons" xmlns="http://www.w3.org/2000/svg" xmlns:xlink="http://www.w3.org/1999/xlink" x="0px" y="0px"
	 viewBox="0 0 32 32" enable-background="new 0 0 32 32" xml:space="preserve">
<g>
	
		<circle fill="none" stroke="#333333" stroke-linecap="round" stroke-linejoin="round" stroke-miterlimit="10" cx="3.992" cy="28.008" r="0.499"/>
	<path fill="none" stroke="#333333" stroke-width="2" stroke-linecap="round" stroke-linejoin="round" stroke-miterlimit="10" d="
		M30.307,5.722L26.459,9.57c-0.781,0.781-2.047,0.781-2.828,0l-1.201-1.201c-0.781-0.781-0.781-2.047,0-2.828l3.856-3.856
		c-2.619-1.16-5.784-0.849-8.107,0.949c-3.02,2.337-3.846,6.244-2.49,9.447L1.996,25.773c-1.145,1.146-1.314,3.03-0.23,4.234
		c1.156,1.284,3.136,1.323,4.341,0.117l13.811-13.812c2.904,1.229,6.386,0.665,8.753-1.702C31.075,12.206,31.614,8.652,30.307,5.722
		z"/>
</g>
</svg>
