<?xml version="1.0" encoding="utf-8"?>
<!-- Generator: Adobe Illustrator 18.0.0, SVG Export Plug-In . SVG Version: 6.00 Build 0)  -->
<!DOCTYPE svg PUBLIC "-//W3C//DTD SVG 1.1//EN" "http://www.w3.org/Graphics/SVG/1.1/DTD/svg11.dtd">
<svg version="1.1" id="Icons" xmlns="http://www.w3.org/2000/svg" xmlns:xlink="http://www.w3.org/1999/xlink" x="0px" y="0px"
	 viewBox="0 0 32 32" enable-background="new 0 0 32 32" xml:space="preserve">
<g>
	<path fill="none" stroke="#333333" stroke-width="2" stroke-linecap="round" stroke-linejoin="round" stroke-miterlimit="10" d="
		M27.626,3.42L28,5.384l-2.546,0.242l0.439,2.294l-2.542,0.237l0.44,2.293l-2.542,0.237l0.443,2.29l-2.542,0.238l0.445,2.288
		l-2.539,0.233l0.442,2.291l-2.541,0.236l0.442,2.291l-2.54,0.235L13.3,23.08l-4.754-4.614L25.185,2.319
		c0.438-0.425,1.147-0.425,1.585,0l0.546,0.53C27.476,3.004,27.584,3.203,27.626,3.42z"/>
	
		<polygon fill="none" stroke="#333333" stroke-width="2" stroke-linecap="round" stroke-linejoin="round" stroke-miterlimit="10" points="
		8.546,18.466 3,23.849 9.339,30 13.3,23.08 	"/>
	<polyline fill="none" stroke="#333333" stroke-linecap="round" stroke-linejoin="round" stroke-miterlimit="10" points="
		7.358,28.077 9.339,26.155 6.962,23.849 4.882,25.867 	"/>
</g>
</svg>
