<?xml version="1.0" encoding="utf-8"?>
<!-- Generator: Adobe Illustrator 18.0.0, SVG Export Plug-In . SVG Version: 6.00 Build 0)  -->
<!DOCTYPE svg PUBLIC "-//W3C//DTD SVG 1.1//EN" "http://www.w3.org/Graphics/SVG/1.1/DTD/svg11.dtd">
<svg version="1.1" id="Icons" xmlns="http://www.w3.org/2000/svg" xmlns:xlink="http://www.w3.org/1999/xlink" x="0px" y="0px"
	 viewBox="0 0 32 32" enable-background="new 0 0 32 32" xml:space="preserve">
<g>
	<g>
		<path fill="none" stroke="#333333" stroke-width="2" stroke-linecap="round" stroke-linejoin="round" stroke-miterlimit="10" d="
			M24.674,4.744l-0.729,0.729l-2.739-2.739c-0.979-0.979-2.58-0.979-3.558,0L14.752,5.63c-0.979,0.978-0.979,2.58,0,3.558
			l2.739,2.739l-9.682,9.682l2.582,2.582l9.682-9.682l2.739,2.739c0.979,0.979,2.58,0.979,3.558,0l2.896-2.896
			c0.979-0.979,0.979-2.58,0-3.558l-2.739-2.739l0.729-0.729c0.664-0.664,0.664-1.751,0-2.415l-0.167-0.167
			C26.425,4.08,25.338,4.08,24.674,4.744z"/>
		
			<rect x="2.867" y="22.743" transform="matrix(0.7071 -0.7071 0.7071 0.7071 -16.1092 12.0722)" fill="none" stroke="#333333" stroke-width="2" stroke-linecap="round" stroke-linejoin="round" stroke-miterlimit="10" width="7.302" height="5.477"/>
	</g>
	<path fill="none" stroke="#333333" stroke-linecap="round" stroke-linejoin="round" stroke-miterlimit="10" d="M17.491,8.7
		l-0.968-0.968c-0.178-0.178-0.178-0.467,0-0.645l1.412-1.412"/>
</g>
</svg>
