<?xml version="1.0" encoding="utf-8"?>
<!-- Generator: Adobe Illustrator 18.0.0, SVG Export Plug-In . SVG Version: 6.00 Build 0)  -->
<!DOCTYPE svg PUBLIC "-//W3C//DTD SVG 1.1//EN" "http://www.w3.org/Graphics/SVG/1.1/DTD/svg11.dtd">
<svg version="1.1" id="Icons" xmlns="http://www.w3.org/2000/svg" xmlns:xlink="http://www.w3.org/1999/xlink" x="0px" y="0px"
	 viewBox="0 0 32 32" enable-background="new 0 0 32 32" xml:space="preserve">
<g>
	
		<rect x="1.151" y="11.05" transform="matrix(0.7071 0.7071 -0.7071 0.7071 15.9999 -6.6274)" fill="none" stroke="#333333" stroke-width="2" stroke-linecap="round" stroke-linejoin="round" stroke-miterlimit="10" width="29.699" height="9.9"/>
	
		<rect x="8.575" y="13.525" transform="matrix(0.7071 0.7071 -0.7071 0.7071 16 -6.6274)" fill="none" stroke="#333333" stroke-linecap="round" stroke-linejoin="round" stroke-miterlimit="10" width="14.849" height="4.95"/>
	<path fill="none" stroke="#333333" stroke-linecap="round" stroke-linejoin="round" stroke-miterlimit="10" d="M18.711,15.299
		c-0.067,0.126-0.154,0.245-0.261,0.351c-0.58,0.58-1.52,0.58-2.1,0c-0.58-0.58-0.58-1.52,0-2.1c0.095-0.095,0.199-0.174,0.31-0.238
		"/>
	
		<line fill="none" stroke="#333333" stroke-linecap="round" stroke-linejoin="round" stroke-miterlimit="10" x1="14.6" y1="11.1" x2="11.1" y2="14.6"/>
	
		<line fill="none" stroke="#333333" stroke-linecap="round" stroke-linejoin="round" stroke-miterlimit="10" x1="20.9" y1="17.4" x2="17.4" y2="20.9"/>
	
		<line fill="none" stroke="#333333" stroke-linecap="round" stroke-linejoin="round" stroke-miterlimit="10" x1="11.45" y1="4.45" x2="4.45" y2="11.45"/>
	
		<line fill="none" stroke="#333333" stroke-linecap="round" stroke-linejoin="round" stroke-miterlimit="10" x1="27.55" y1="20.55" x2="20.55" y2="27.55"/>
</g>
</svg>
