<?xml version="1.0" encoding="utf-8"?>
<!-- Generator: Adobe Illustrator 18.0.0, SVG Export Plug-In . SVG Version: 6.00 Build 0)  -->
<!DOCTYPE svg PUBLIC "-//W3C//DTD SVG 1.1//EN" "http://www.w3.org/Graphics/SVG/1.1/DTD/svg11.dtd">
<svg version="1.1" id="Icons" xmlns="http://www.w3.org/2000/svg" xmlns:xlink="http://www.w3.org/1999/xlink" x="0px" y="0px"
	 viewBox="0 0 32 32" enable-background="new 0 0 32 32" xml:space="preserve">
<g>
	<path fill="none" stroke="#333333" stroke-width="2" stroke-linecap="round" stroke-linejoin="round" stroke-miterlimit="10" d="
		M10.615,30L2,21.385l5.744-5.744c1.586-1.586,4.157-1.586,5.744,0l2.872,2.872c1.586,1.586,1.586,4.158,0,5.743L10.615,30z"/>
	
		<line fill="none" stroke="#333333" stroke-width="2" stroke-linecap="round" stroke-linejoin="round" stroke-miterlimit="10" x1="14.923" y1="17.077" x2="25.692" y2="6.308"/>
	<path fill="none" stroke="#333333" stroke-width="2" stroke-linecap="round" stroke-linejoin="round" stroke-miterlimit="10" d="
		M30,6.308c-1.19,1.189-3.118,1.189-4.308,0s-1.19-3.118,0-4.308L30,6.308z"/>
	<path fill="none" stroke="#333333" stroke-linecap="round" stroke-linejoin="round" stroke-miterlimit="10" d="M16.718,18.154
		l-3.417,2.306c-0.505,0.341-1.18,0.277-1.61-0.153l0,0c-0.43-0.43-0.494-1.105-0.153-1.61l2.297-3.404"/>
</g>
</svg>
