<?xml version="1.0" encoding="utf-8"?>
<!-- Generator: Adobe Illustrator 18.0.0, SVG Export Plug-In . SVG Version: 6.00 Build 0)  -->
<!DOCTYPE svg PUBLIC "-//W3C//DTD SVG 1.1//EN" "http://www.w3.org/Graphics/SVG/1.1/DTD/svg11.dtd">
<svg version="1.1" id="Icons" xmlns="http://www.w3.org/2000/svg" xmlns:xlink="http://www.w3.org/1999/xlink" x="0px" y="0px"
	 viewBox="0 0 32 32" enable-background="new 0 0 32 32" xml:space="preserve">
<g>
	<path fill="none" stroke="#333333" stroke-width="2" stroke-linecap="round" stroke-linejoin="round" stroke-miterlimit="10" d="
		M22.541,13.263c0.992,1.039,0.611,3.331,0.626,4.762c1.612,0.018,3.947-1.345,5.248-2.709c1.302-1.364,2.602-3.811,2.585-5.501
		c-1.365-0.016-3.551,0.383-4.543-0.656L20.582,3l-3.916,4.105L22.541,13.263z"/>
	<path fill="none" stroke="#333333" stroke-width="2" stroke-linecap="round" stroke-linejoin="round" stroke-miterlimit="10" d="
		M9.836,17.001c1.117-0.333,2.408-1.155,3.566-2.37c1.159-1.214,1.943-2.567,2.261-3.738l2.309-2.42l2.611,2.737L3.611,29L1,26.263
		L9.836,17.001z"/>
	
		<line fill="none" stroke="#333333" stroke-linecap="round" stroke-linejoin="round" stroke-miterlimit="10" x1="23.153" y1="5.78" x2="19.277" y2="9.842"/>
	<path fill="none" stroke="#333333" stroke-linecap="round" stroke-linejoin="round" stroke-miterlimit="10" d="M28.889,10.03
		c-0.573,2.425-3.203,5.182-5.516,5.782"/>
</g>
</svg>
