<?xml version="1.0" encoding="utf-8"?>
<!-- Generator: Adobe Illustrator 18.0.0, SVG Export Plug-In . SVG Version: 6.00 Build 0)  -->
<!DOCTYPE svg PUBLIC "-//W3C//DTD SVG 1.1//EN" "http://www.w3.org/Graphics/SVG/1.1/DTD/svg11.dtd">
<svg version="1.1" id="Icons" xmlns="http://www.w3.org/2000/svg" xmlns:xlink="http://www.w3.org/1999/xlink" x="0px" y="0px"
	 viewBox="0 0 32 32" enable-background="new 0 0 32 32" xml:space="preserve">
<g>
	<path fill="none" stroke="#333333" stroke-width="2" stroke-linecap="round" stroke-linejoin="round" stroke-miterlimit="10" d="
		M5,11v8h4c2.761,0,5,2.239,5,5v4c0,1.657,1.343,3,3,3l0,0c1.657,0,3-1.343,3-3v-4c0-2.761,2.239-5,5-5h4v-8H5z"/>
	
		<line fill="none" stroke="#333333" stroke-linecap="round" stroke-linejoin="round" stroke-miterlimit="10" x1="5" y1="14.5" x2="29" y2="14.5"/>
	
		<line fill="none" stroke="#333333" stroke-width="2" stroke-linecap="round" stroke-linejoin="round" stroke-miterlimit="10" x1="2" y1="1" x2="26" y2="1"/>
	<path fill="none" stroke="#333333" stroke-width="2" stroke-linecap="round" stroke-linejoin="round" stroke-miterlimit="10" d="
		M4.989,11C5.121,7.456,4.052,3.878,2,1"/>
	<path fill="none" stroke="#333333" stroke-width="2" stroke-linecap="round" stroke-linejoin="round" stroke-miterlimit="10" d="
		M28.989,11C29.121,7.456,28.052,3.878,26,1"/>
	<path fill="none" stroke="#333333" stroke-linecap="round" stroke-linejoin="round" stroke-miterlimit="10" d="M21.489,11
		c0.132-3.544-0.938-7.122-2.989-10"/>
	<path fill="none" stroke="#333333" stroke-linecap="round" stroke-linejoin="round" stroke-miterlimit="10" d="M25.489,11
		c0.132-3.544-0.938-7.122-2.989-10"/>
	<path fill="none" stroke="#333333" stroke-linecap="round" stroke-linejoin="round" stroke-miterlimit="10" d="M17.489,11
		c0.132-3.544-0.938-7.122-2.989-10"/>
	<path fill="none" stroke="#333333" stroke-linecap="round" stroke-linejoin="round" stroke-miterlimit="10" d="M13.489,11
		c0.132-3.544-0.938-7.122-2.989-10"/>
	<path fill="none" stroke="#333333" stroke-linecap="round" stroke-linejoin="round" stroke-miterlimit="10" d="M9.489,11
		C9.621,7.456,8.552,3.878,6.5,1"/>
	<g>
		<path fill="#333333" d="M17,27c-0.552,0-1,0.448-1,1s0.448,1,1,1c0.552,0,1-0.448,1-1S17.552,27,17,27L17,27z"/>
	</g>
</g>
</svg>
