<?xml version="1.0" encoding="utf-8"?>
<!-- Generator: Adobe Illustrator 18.0.0, SVG Export Plug-In . SVG Version: 6.00 Build 0)  -->
<!DOCTYPE svg PUBLIC "-//W3C//DTD SVG 1.1//EN" "http://www.w3.org/Graphics/SVG/1.1/DTD/svg11.dtd">
<svg version="1.1" id="Icons" xmlns="http://www.w3.org/2000/svg" xmlns:xlink="http://www.w3.org/1999/xlink" x="0px" y="0px"
	 viewBox="0 0 32 32" enable-background="new 0 0 32 32" xml:space="preserve">
<g>
	<path fill="none" stroke="#333333" stroke-width="2" stroke-linecap="round" stroke-linejoin="round" stroke-miterlimit="10" d="
		M14.768,19c-1.744,0.095-3.424,0.392-4.768,0.892v5.194C10,28.339,15.765,31,15.765,31h0.469c0,0,5.765-2.661,5.765-5.914v-5.194
		c-1.339-0.498-3.012-0.795-4.75-0.891"/>
	<path fill="none" stroke="#333333" stroke-width="2" stroke-linecap="round" stroke-linejoin="round" stroke-miterlimit="10" d="
		M18,4.344v10.344c0,0.519-0.036,1.038-0.108,1.553c-0.072,0.516-0.179,1.029-0.321,1.537l0,0c-0.3,1.069-0.793,2.102-1.466,3.071
		L16,21l-0.105-0.151c-0.673-0.969-1.166-2.002-1.466-3.071l0,0c-0.143-0.508-0.25-1.021-0.322-1.537
		C14.036,15.726,14,15.207,14,14.688V4.281"/>
	
		<line fill="none" stroke="#333333" stroke-linecap="round" stroke-linejoin="round" stroke-miterlimit="10" x1="14.5" y1="15.5" x2="17.5" y2="15.5"/>
	<path fill="none" stroke="#333333" stroke-width="2" stroke-linecap="round" stroke-linejoin="round" stroke-miterlimit="10" d="
		M19,1v1.143C19,3.721,17.657,5,16,5c-1.657,0-3-1.279-3-2.857V1H19z"/>
</g>
</svg>
