<?xml version="1.0" encoding="utf-8"?>
<!-- Generator: Adobe Illustrator 18.0.0, SVG Export Plug-In . SVG Version: 6.00 Build 0)  -->
<!DOCTYPE svg PUBLIC "-//W3C//DTD SVG 1.1//EN" "http://www.w3.org/Graphics/SVG/1.1/DTD/svg11.dtd">
<svg version="1.1" id="Icons" xmlns="http://www.w3.org/2000/svg" xmlns:xlink="http://www.w3.org/1999/xlink" x="0px" y="0px"
	 viewBox="0 0 32 32" enable-background="new 0 0 32 32" xml:space="preserve">
<g>
	<path fill="none" stroke="#333333" stroke-width="2" stroke-linecap="round" stroke-linejoin="round" stroke-miterlimit="10" d="
		M4,13v6h8.481c0.507,0,0.903,0.274,0.853,0.794l-0.763,7.765c0,1.949,1.535,3.485,3.429,3.485v-0.022
		c1.893,0,3.429-1.591,3.429-3.541l-0.763-7.682C18.615,19.28,19.011,19,19.519,19H28v-6H4z"/>
	<path fill="none" stroke="#333333" stroke-width="2" stroke-linecap="round" stroke-linejoin="round" stroke-miterlimit="10" d="
		M5.333,13L4,1c1.199,0,1.199,1.714,2.397,1.714C7.597,2.714,7.597,1,8.796,1c1.2,0,1.2,1.714,2.4,1.714
		C12.393,2.714,12.393,1,13.59,1c1.199,0,1.199,1.714,2.398,1.714c1.2,0,1.2-1.714,2.4-1.714c1.2,0,1.2,1.714,2.401,1.714
		C21.989,2.714,21.989,1,23.19,1c1.203,0,1.203,1.714,2.405,1.714C26.797,2.714,26.797,1,28,1l-1.333,12"/>
	
		<circle fill="none" stroke="#333333" stroke-linecap="round" stroke-linejoin="round" stroke-miterlimit="10" cx="16" cy="28" r="0.499"/>
</g>
</svg>
