<?xml version="1.0" encoding="utf-8"?>
<!-- Generator: Adobe Illustrator 18.0.0, SVG Export Plug-In . SVG Version: 6.00 Build 0)  -->
<!DOCTYPE svg PUBLIC "-//W3C//DTD SVG 1.1//EN" "http://www.w3.org/Graphics/SVG/1.1/DTD/svg11.dtd">
<svg version="1.1" id="Icons" xmlns="http://www.w3.org/2000/svg" xmlns:xlink="http://www.w3.org/1999/xlink" x="0px" y="0px"
	 viewBox="0 0 32 32" enable-background="new 0 0 32 32" xml:space="preserve">
<g>
	<g>
		
			<polyline fill="none" stroke="#333333" stroke-width="2" stroke-linecap="round" stroke-linejoin="round" stroke-miterlimit="10" points="
			6.235,27 6.391,23.94 2.809,23.5 4.213,20.225 1,18.605 3.456,16 1,13.395 4.213,11.775 2.809,8.5 6.391,8.06 6.209,4.509 
			9.728,5.302 10.791,1.905 13.822,3.835 16,1 18.178,3.835 21.209,1.905 22.272,5.302 25.791,4.509 25.609,8.06 29.191,8.5 
			27.787,11.775 31,13.395 28.543,16 31,18.605 27.787,20.225 29.191,23.5 25.609,23.94 25.763,26.957 		"/>
		
			<circle fill="none" stroke="#333333" stroke-linecap="round" stroke-linejoin="round" stroke-miterlimit="10" cx="16" cy="16" r="2.5"/>
		
			<rect x="1" y="27" fill="none" stroke="#333333" stroke-width="2" stroke-linecap="round" stroke-linejoin="round" stroke-miterlimit="10" width="30" height="4"/>
	</g>
	<path fill="none" stroke="#333333" stroke-linecap="round" stroke-linejoin="round" stroke-miterlimit="10" d="M7.5,12.45
		c0.425-2.311,2.639-4.525,4.95-4.95"/>
</g>
</svg>
